<svg id="Layer_1" data-name="Layer 1" xmlns="http://www.w3.org/2000/svg" viewBox="0 0 16 16"><defs><style>.cls-1,.cls-2{fill:none;stroke:#fff;stroke-miterlimit:10;}.cls-2{stroke-width:1.5px;}</style></defs><polygon class="cls-1" points="3.5 9.5 5.5 9.5 8.5 12.5 8.5 3.5 5.5 6.5 3.5 6.5 3.5 9.5"/><path class="cls-2" d="M1,7A6.3,6.3,0,0,1,7,1"/><path class="cls-2" d="M7,15A6.3,6.3,0,0,1,1,9"/><path class="cls-2" d="M15,9a6.31,6.31,0,0,1-6,6"/><path class="cls-2" d="M9,1a6.32,6.32,0,0,1,6,6"/><path class="cls-1" d="M10.5,5.5a3.83,3.83,0,0,1,1,2.5,3.83,3.83,0,0,1-1,2.5"/></svg>